<svg xmlns="http://www.w3.org/2000/svg" width="1200" height="320" viewBox="0 0 1200 320" font-family="ui-monospace, SFMono-Regular, Menlo, Consolas, 'Liberation Mono', monospace">
<style>
  .rain { font-size: 13px; fill: #2ee38a; opacity: 0.28; animation: fall linear infinite; }
  @keyframes fall { from { transform: translateY(-360px); } to { transform: translateY(340px); } }
  .title { font-size: 88px; font-weight: 800; letter-spacing: 6px; }
  .ghost { animation: glitch 4s steps(2) infinite; }
  @keyframes glitch { 0%,88%,100% { transform: translate(0,0); opacity: 0; } 90% { transform: translate(-4px,2px); opacity: .8; } 94% { transform: translate(4px,-2px); opacity: .8; } 97% { transform: translate(-2px,0); opacity: .6; } }
  .word { font-size: 26px; fill: #e6edf3; opacity: 0; animation: show linear infinite; }
  @keyframes show { 0% { opacity: 0; } 1% { opacity: 1; } 8.09% { opacity: 1; } 9.09% { opacity: 0; } 100% { opacity: 0; } }
  .cursor { animation: blink 1s steps(1) infinite; }
  @keyframes blink { 50% { opacity: 0; } }
  .scan { animation: scan 7s linear infinite; }
  @keyframes scan { from { transform: translateY(-40px); } to { transform: translateY(320px); } }
  .stat { font-size: 15px; letter-spacing: 3px; fill: #8b949e; }
  .num { fill: #2ee38a; font-weight: 700; }
</style>
<defs>
  <filter id="glow" x="-20%" y="-50%" width="140%" height="200%"><feGaussianBlur stdDeviation="6" result="b"/><feMerge><feMergeNode in="b"/><feMergeNode in="SourceGraphic"/></feMerge></filter>
  <pattern id="grid" width="40" height="40" patternUnits="userSpaceOnUse"><path d="M40 0H0V40" fill="none" stroke="#2ee38a" stroke-opacity="0.07"/></pattern>
  <pattern id="lines" width="4" height="4" patternUnits="userSpaceOnUse"><rect width="4" height="1" fill="#000" fill-opacity="0.18"/></pattern>
  <linearGradient id="fade" x1="0" y1="0" x2="0" y2="1"><stop offset="0" stop-color="#05070b" stop-opacity="0"/><stop offset="1" stop-color="#05070b" stop-opacity="1"/></linearGradient>
  <clipPath id="clip"><rect width="1200" height="320" rx="16"/></clipPath>
</defs>
<g clip-path="url(#clip)">
  <rect width="1200" height="320" fill="#05070b"/>
  <rect width="1200" height="320" fill="url(#grid)"/>
  <text class="rain" style="animation-duration:9.0s;animation-delay:-9.2s" x="12" y="0"><tspan x="12" dy="16">]</tspan><tspan x="12" dy="16">/</tspan><tspan x="12" dy="16">ニ</tspan><tspan x="12" dy="16">{</tspan><tspan x="12" dy="16">}</tspan><tspan x="12" dy="16">ケ</tspan><tspan x="12" dy="16">ト</tspan><tspan x="12" dy="16">ヌ</tspan><tspan x="12" dy="16">ニ</tspan><tspan x="12" dy="16">ツ</tspan><tspan x="12" dy="16">ネ</tspan><tspan x="12" dy="16">シ</tspan><tspan x="12" dy="16">ニ</tspan><tspan x="12" dy="16">オ</tspan><tspan x="12" dy="16">$</tspan><tspan x="12" dy="16">ネ</tspan><tspan x="12" dy="16">ウ</tspan><tspan x="12" dy="16">&lt;</tspan><tspan x="12" dy="16">ナ</tspan><tspan x="12" dy="16">ネ</tspan><tspan x="12" dy="16">ネ</tspan><tspan x="12" dy="16">ツ</tspan></text><text class="rain" style="animation-duration:8.8s;animation-delay:-2.2s" x="55" y="0"><tspan x="55" dy="16">[</tspan><tspan x="55" dy="16">カ</tspan><tspan x="55" dy="16">%</tspan><tspan x="55" dy="16">セ</tspan><tspan x="55" dy="16">ケ</tspan><tspan x="55" dy="16">テ</tspan><tspan x="55" dy="16">[</tspan><tspan x="55" dy="16">%</tspan><tspan x="55" dy="16">[</tspan><tspan x="55" dy="16">ソ</tspan><tspan x="55" dy="16">サ</tspan><tspan x="55" dy="16">\</tspan><tspan x="55" dy="16">ウ</tspan><tspan x="55" dy="16">&gt;</tspan><tspan x="55" dy="16">]</tspan><tspan x="55" dy="16">{</tspan><tspan x="55" dy="16">ア</tspan><tspan x="55" dy="16">ウ</tspan><tspan x="55" dy="16">ノ</tspan><tspan x="55" dy="16">]</tspan><tspan x="55" dy="16">イ</tspan><tspan x="55" dy="16">1</tspan></text><text class="rain" style="animation-duration:9.7s;animation-delay:-0.6s" x="98" y="0"><tspan x="98" dy="16">チ</tspan><tspan x="98" dy="16">サ</tspan><tspan x="98" dy="16">#</tspan><tspan x="98" dy="16">{</tspan><tspan x="98" dy="16">テ</tspan><tspan x="98" dy="16">0</tspan><tspan x="98" dy="16">]</tspan><tspan x="98" dy="16">ト</tspan><tspan x="98" dy="16">$</tspan><tspan x="98" dy="16">{</tspan><tspan x="98" dy="16">ス</tspan><tspan x="98" dy="16">\</tspan><tspan x="98" dy="16">ア</tspan><tspan x="98" dy="16">\</tspan><tspan x="98" dy="16">ツ</tspan><tspan x="98" dy="16">シ</tspan><tspan x="98" dy="16">]</tspan><tspan x="98" dy="16">コ</tspan><tspan x="98" dy="16">&gt;</tspan><tspan x="98" dy="16">&gt;</tspan><tspan x="98" dy="16">&gt;</tspan><tspan x="98" dy="16">コ</tspan></text><text class="rain" style="animation-duration:10.3s;animation-delay:-6.1s" x="141" y="0"><tspan x="141" dy="16">*</tspan><tspan x="141" dy="16">}</tspan><tspan x="141" dy="16">%</tspan><tspan x="141" dy="16">1</tspan><tspan x="141" dy="16">&gt;</tspan><tspan x="141" dy="16">*</tspan><tspan x="141" dy="16">/</tspan><tspan x="141" dy="16">ナ</tspan><tspan x="141" dy="16">\</tspan><tspan x="141" dy="16">{</tspan><tspan x="141" dy="16">ソ</tspan><tspan x="141" dy="16">ソ</tspan><tspan x="141" dy="16">ウ</tspan><tspan x="141" dy="16">キ</tspan><tspan x="141" dy="16">イ</tspan><tspan x="141" dy="16">ケ</tspan><tspan x="141" dy="16">テ</tspan><tspan x="141" dy="16">エ</tspan><tspan x="141" dy="16">サ</tspan><tspan x="141" dy="16">#</tspan><tspan x="141" dy="16">/</tspan><tspan x="141" dy="16">ソ</tspan></text><text class="rain" style="animation-duration:7.6s;animation-delay:-2.8s" x="184" y="0"><tspan x="184" dy="16">$</tspan><tspan x="184" dy="16">ナ</tspan><tspan x="184" dy="16">[</tspan><tspan x="184" dy="16">ア</tspan><tspan x="184" dy="16">$</tspan><tspan x="184" dy="16">チ</tspan><tspan x="184" dy="16">ク</tspan><tspan x="184" dy="16">イ</tspan><tspan x="184" dy="16">%</tspan><tspan x="184" dy="16">ナ</tspan><tspan x="184" dy="16">ヌ</tspan><tspan x="184" dy="16">ウ</tspan><tspan x="184" dy="16">シ</tspan><tspan x="184" dy="16">ナ</tspan><tspan x="184" dy="16">[</tspan><tspan x="184" dy="16">ソ</tspan><tspan x="184" dy="16">シ</tspan><tspan x="184" dy="16">サ</tspan><tspan x="184" dy="16">キ</tspan><tspan x="184" dy="16">&amp;</tspan><tspan x="184" dy="16">ネ</tspan><tspan x="184" dy="16">]</tspan></text><text class="rain" style="animation-duration:6.4s;animation-delay:-3.4s" x="227" y="0"><tspan x="227" dy="16">ス</tspan><tspan x="227" dy="16">ト</tspan><tspan x="227" dy="16">ネ</tspan><tspan x="227" dy="16">]</tspan><tspan x="227" dy="16">サ</tspan><tspan x="227" dy="16">]</tspan><tspan x="227" dy="16">ノ</tspan><tspan x="227" dy="16">ケ</tspan><tspan x="227" dy="16">&amp;</tspan><tspan x="227" dy="16">]</tspan><tspan x="227" dy="16">テ</tspan><tspan x="227" dy="16">ア</tspan><tspan x="227" dy="16">1</tspan><tspan x="227" dy="16">/</tspan><tspan x="227" dy="16">[</tspan><tspan x="227" dy="16">サ</tspan><tspan x="227" dy="16">$</tspan><tspan x="227" dy="16">ツ</tspan><tspan x="227" dy="16">/</tspan><tspan x="227" dy="16">テ</tspan><tspan x="227" dy="16">ネ</tspan><tspan x="227" dy="16">ナ</tspan></text><text class="rain" style="animation-duration:8.5s;animation-delay:-2.2s" x="270" y="0"><tspan x="270" dy="16">#</tspan><tspan x="270" dy="16">}</tspan><tspan x="270" dy="16">ヌ</tspan><tspan x="270" dy="16">ヌ</tspan><tspan x="270" dy="16">ク</tspan><tspan x="270" dy="16">]</tspan><tspan x="270" dy="16">タ</tspan><tspan x="270" dy="16">セ</tspan><tspan x="270" dy="16">ヌ</tspan><tspan x="270" dy="16">エ</tspan><tspan x="270" dy="16">%</tspan><tspan x="270" dy="16">0</tspan><tspan x="270" dy="16">ト</tspan><tspan x="270" dy="16">エ</tspan><tspan x="270" dy="16">タ</tspan><tspan x="270" dy="16">*</tspan><tspan x="270" dy="16">&gt;</tspan><tspan x="270" dy="16">[</tspan><tspan x="270" dy="16">ヌ</tspan><tspan x="270" dy="16">キ</tspan><tspan x="270" dy="16">ア</tspan><tspan x="270" dy="16">&lt;</tspan></text><text class="rain" style="animation-duration:5.9s;animation-delay:-10.8s" x="313" y="0"><tspan x="313" dy="16">#</tspan><tspan x="313" dy="16">カ</tspan><tspan x="313" dy="16">セ</tspan><tspan x="313" dy="16">ツ</tspan><tspan x="313" dy="16">イ</tspan><tspan x="313" dy="16">*</tspan><tspan x="313" dy="16">シ</tspan><tspan x="313" dy="16">ナ</tspan><tspan x="313" dy="16">/</tspan><tspan x="313" dy="16">ト</tspan><tspan x="313" dy="16">タ</tspan><tspan x="313" dy="16">}</tspan><tspan x="313" dy="16">オ</tspan><tspan x="313" dy="16">ク</tspan><tspan x="313" dy="16">&lt;</tspan><tspan x="313" dy="16">}</tspan><tspan x="313" dy="16">ア</tspan><tspan x="313" dy="16">\</tspan><tspan x="313" dy="16">*</tspan><tspan x="313" dy="16">チ</tspan><tspan x="313" dy="16">1</tspan><tspan x="313" dy="16">ク</tspan></text><text class="rain" style="animation-duration:10.4s;animation-delay:-6.9s" x="356" y="0"><tspan x="356" dy="16">]</tspan><tspan x="356" dy="16">*</tspan><tspan x="356" dy="16">%</tspan><tspan x="356" dy="16">1</tspan><tspan x="356" dy="16">コ</tspan><tspan x="356" dy="16">サ</tspan><tspan x="356" dy="16">ケ</tspan><tspan x="356" dy="16">セ</tspan><tspan x="356" dy="16">ス</tspan><tspan x="356" dy="16">ア</tspan><tspan x="356" dy="16">#</tspan><tspan x="356" dy="16">%</tspan><tspan x="356" dy="16">ネ</tspan><tspan x="356" dy="16">ツ</tspan><tspan x="356" dy="16">テ</tspan><tspan x="356" dy="16">1</tspan><tspan x="356" dy="16">$</tspan><tspan x="356" dy="16">ナ</tspan><tspan x="356" dy="16">オ</tspan><tspan x="356" dy="16">ケ</tspan><tspan x="356" dy="16">エ</tspan><tspan x="356" dy="16">0</tspan></text><text class="rain" style="animation-duration:5.4s;animation-delay:-7.1s" x="399" y="0"><tspan x="399" dy="16">サ</tspan><tspan x="399" dy="16">ケ</tspan><tspan x="399" dy="16">サ</tspan><tspan x="399" dy="16">オ</tspan><tspan x="399" dy="16">エ</tspan><tspan x="399" dy="16">ケ</tspan><tspan x="399" dy="16">\</tspan><tspan x="399" dy="16">ネ</tspan><tspan x="399" dy="16">{</tspan><tspan x="399" dy="16">[</tspan><tspan x="399" dy="16">セ</tspan><tspan x="399" dy="16">イ</tspan><tspan x="399" dy="16">$</tspan><tspan x="399" dy="16">ス</tspan><tspan x="399" dy="16">ノ</tspan><tspan x="399" dy="16">ト</tspan><tspan x="399" dy="16">\</tspan><tspan x="399" dy="16">%</tspan><tspan x="399" dy="16">&amp;</tspan><tspan x="399" dy="16">サ</tspan><tspan x="399" dy="16">ウ</tspan><tspan x="399" dy="16">ウ</tspan></text><text class="rain" style="animation-duration:7.2s;animation-delay:-8.4s" x="442" y="0"><tspan x="442" dy="16">キ</tspan><tspan x="442" dy="16">ニ</tspan><tspan x="442" dy="16">タ</tspan><tspan x="442" dy="16">}</tspan><tspan x="442" dy="16">ヌ</tspan><tspan x="442" dy="16">1</tspan><tspan x="442" dy="16">0</tspan><tspan x="442" dy="16">セ</tspan><tspan x="442" dy="16">イ</tspan><tspan x="442" dy="16">/</tspan><tspan x="442" dy="16">\</tspan><tspan x="442" dy="16">カ</tspan><tspan x="442" dy="16">ネ</tspan><tspan x="442" dy="16">タ</tspan><tspan x="442" dy="16">&gt;</tspan><tspan x="442" dy="16">\</tspan><tspan x="442" dy="16">チ</tspan><tspan x="442" dy="16">ク</tspan><tspan x="442" dy="16">0</tspan><tspan x="442" dy="16">ノ</tspan><tspan x="442" dy="16">ツ</tspan><tspan x="442" dy="16">*</tspan></text><text class="rain" style="animation-duration:8.8s;animation-delay:-8.6s" x="485" y="0"><tspan x="485" dy="16">テ</tspan><tspan x="485" dy="16">0</tspan><tspan x="485" dy="16">[</tspan><tspan x="485" dy="16">イ</tspan><tspan x="485" dy="16">エ</tspan><tspan x="485" dy="16">イ</tspan><tspan x="485" dy="16">ニ</tspan><tspan x="485" dy="16">$</tspan><tspan x="485" dy="16">]</tspan><tspan x="485" dy="16">ノ</tspan><tspan x="485" dy="16">ネ</tspan><tspan x="485" dy="16">&amp;</tspan><tspan x="485" dy="16">コ</tspan><tspan x="485" dy="16">0</tspan><tspan x="485" dy="16">*</tspan><tspan x="485" dy="16">コ</tspan><tspan x="485" dy="16">サ</tspan><tspan x="485" dy="16">ウ</tspan><tspan x="485" dy="16">$</tspan><tspan x="485" dy="16">サ</tspan><tspan x="485" dy="16">エ</tspan><tspan x="485" dy="16">\</tspan></text><text class="rain" style="animation-duration:9.7s;animation-delay:-6.4s" x="528" y="0"><tspan x="528" dy="16">ケ</tspan><tspan x="528" dy="16">ノ</tspan><tspan x="528" dy="16">ス</tspan><tspan x="528" dy="16">[</tspan><tspan x="528" dy="16">エ</tspan><tspan x="528" dy="16">ス</tspan><tspan x="528" dy="16">&lt;</tspan><tspan x="528" dy="16">コ</tspan><tspan x="528" dy="16">$</tspan><tspan x="528" dy="16">1</tspan><tspan x="528" dy="16">$</tspan><tspan x="528" dy="16">&gt;</tspan><tspan x="528" dy="16">/</tspan><tspan x="528" dy="16">ツ</tspan><tspan x="528" dy="16">オ</tspan><tspan x="528" dy="16">テ</tspan><tspan x="528" dy="16">チ</tspan><tspan x="528" dy="16">イ</tspan><tspan x="528" dy="16">*</tspan><tspan x="528" dy="16">ニ</tspan><tspan x="528" dy="16">テ</tspan><tspan x="528" dy="16">1</tspan></text><text class="rain" style="animation-duration:8.4s;animation-delay:-10.5s" x="571" y="0"><tspan x="571" dy="16">ト</tspan><tspan x="571" dy="16">シ</tspan><tspan x="571" dy="16">オ</tspan><tspan x="571" dy="16">/</tspan><tspan x="571" dy="16">1</tspan><tspan x="571" dy="16">イ</tspan><tspan x="571" dy="16">ネ</tspan><tspan x="571" dy="16">&gt;</tspan><tspan x="571" dy="16">ネ</tspan><tspan x="571" dy="16">ア</tspan><tspan x="571" dy="16">ネ</tspan><tspan x="571" dy="16">0</tspan><tspan x="571" dy="16">ア</tspan><tspan x="571" dy="16">]</tspan><tspan x="571" dy="16">$</tspan><tspan x="571" dy="16">%</tspan><tspan x="571" dy="16">エ</tspan><tspan x="571" dy="16">テ</tspan><tspan x="571" dy="16">[</tspan><tspan x="571" dy="16">&gt;</tspan><tspan x="571" dy="16">]</tspan><tspan x="571" dy="16">#</tspan></text><text class="rain" style="animation-duration:6.3s;animation-delay:-9.1s" x="614" y="0"><tspan x="614" dy="16">エ</tspan><tspan x="614" dy="16">%</tspan><tspan x="614" dy="16">}</tspan><tspan x="614" dy="16">ニ</tspan><tspan x="614" dy="16">ニ</tspan><tspan x="614" dy="16">ア</tspan><tspan x="614" dy="16">ク</tspan><tspan x="614" dy="16">ク</tspan><tspan x="614" dy="16">オ</tspan><tspan x="614" dy="16">ス</tspan><tspan x="614" dy="16">]</tspan><tspan x="614" dy="16">ノ</tspan><tspan x="614" dy="16">ケ</tspan><tspan x="614" dy="16">キ</tspan><tspan x="614" dy="16">サ</tspan><tspan x="614" dy="16">ソ</tspan><tspan x="614" dy="16">ヌ</tspan><tspan x="614" dy="16">&amp;</tspan><tspan x="614" dy="16">ト</tspan><tspan x="614" dy="16">ウ</tspan><tspan x="614" dy="16">ニ</tspan><tspan x="614" dy="16">]</tspan></text><text class="rain" style="animation-duration:9.4s;animation-delay:-4.6s" x="657" y="0"><tspan x="657" dy="16">&amp;</tspan><tspan x="657" dy="16">タ</tspan><tspan x="657" dy="16">/</tspan><tspan x="657" dy="16">エ</tspan><tspan x="657" dy="16">タ</tspan><tspan x="657" dy="16">&amp;</tspan><tspan x="657" dy="16">ソ</tspan><tspan x="657" dy="16">ク</tspan><tspan x="657" dy="16">オ</tspan><tspan x="657" dy="16">シ</tspan><tspan x="657" dy="16">ク</tspan><tspan x="657" dy="16">ケ</tspan><tspan x="657" dy="16">ク</tspan><tspan x="657" dy="16">ア</tspan><tspan x="657" dy="16">0</tspan><tspan x="657" dy="16">イ</tspan><tspan x="657" dy="16">セ</tspan><tspan x="657" dy="16">ナ</tspan><tspan x="657" dy="16">カ</tspan><tspan x="657" dy="16">ツ</tspan><tspan x="657" dy="16">サ</tspan><tspan x="657" dy="16">ウ</tspan></text><text class="rain" style="animation-duration:6.9s;animation-delay:-7.6s" x="700" y="0"><tspan x="700" dy="16">&gt;</tspan><tspan x="700" dy="16">{</tspan><tspan x="700" dy="16">ヌ</tspan><tspan x="700" dy="16">ネ</tspan><tspan x="700" dy="16">エ</tspan><tspan x="700" dy="16">サ</tspan><tspan x="700" dy="16">コ</tspan><tspan x="700" dy="16">ニ</tspan><tspan x="700" dy="16">シ</tspan><tspan x="700" dy="16">&gt;</tspan><tspan x="700" dy="16">イ</tspan><tspan x="700" dy="16">セ</tspan><tspan x="700" dy="16">オ</tspan><tspan x="700" dy="16">チ</tspan><tspan x="700" dy="16">\</tspan><tspan x="700" dy="16">テ</tspan><tspan x="700" dy="16">チ</tspan><tspan x="700" dy="16">テ</tspan><tspan x="700" dy="16">チ</tspan><tspan x="700" dy="16">ア</tspan><tspan x="700" dy="16">ソ</tspan><tspan x="700" dy="16">ノ</tspan></text><text class="rain" style="animation-duration:6.1s;animation-delay:-7.6s" x="743" y="0"><tspan x="743" dy="16">/</tspan><tspan x="743" dy="16">}</tspan><tspan x="743" dy="16">タ</tspan><tspan x="743" dy="16">/</tspan><tspan x="743" dy="16">タ</tspan><tspan x="743" dy="16">ア</tspan><tspan x="743" dy="16">テ</tspan><tspan x="743" dy="16">イ</tspan><tspan x="743" dy="16">キ</tspan><tspan x="743" dy="16">$</tspan><tspan x="743" dy="16">*</tspan><tspan x="743" dy="16">*</tspan><tspan x="743" dy="16">{</tspan><tspan x="743" dy="16">ト</tspan><tspan x="743" dy="16">ケ</tspan><tspan x="743" dy="16">[</tspan><tspan x="743" dy="16">ヌ</tspan><tspan x="743" dy="16">&gt;</tspan><tspan x="743" dy="16">1</tspan><tspan x="743" dy="16">#</tspan><tspan x="743" dy="16">ウ</tspan><tspan x="743" dy="16">}</tspan></text><text class="rain" style="animation-duration:6.6s;animation-delay:-5.8s" x="786" y="0"><tspan x="786" dy="16">ヌ</tspan><tspan x="786" dy="16">ツ</tspan><tspan x="786" dy="16">シ</tspan><tspan x="786" dy="16">&gt;</tspan><tspan x="786" dy="16">*</tspan><tspan x="786" dy="16">]</tspan><tspan x="786" dy="16">]</tspan><tspan x="786" dy="16">ノ</tspan><tspan x="786" dy="16">{</tspan><tspan x="786" dy="16">#</tspan><tspan x="786" dy="16">}</tspan><tspan x="786" dy="16">キ</tspan><tspan x="786" dy="16">ネ</tspan><tspan x="786" dy="16">ヌ</tspan><tspan x="786" dy="16">ヌ</tspan><tspan x="786" dy="16">コ</tspan><tspan x="786" dy="16">ウ</tspan><tspan x="786" dy="16">ソ</tspan><tspan x="786" dy="16">ト</tspan><tspan x="786" dy="16">キ</tspan><tspan x="786" dy="16">ソ</tspan><tspan x="786" dy="16">{</tspan></text><text class="rain" style="animation-duration:8.1s;animation-delay:-8.4s" x="829" y="0"><tspan x="829" dy="16">オ</tspan><tspan x="829" dy="16">オ</tspan><tspan x="829" dy="16">]</tspan><tspan x="829" dy="16">コ</tspan><tspan x="829" dy="16">キ</tspan><tspan x="829" dy="16">ナ</tspan><tspan x="829" dy="16">ノ</tspan><tspan x="829" dy="16">キ</tspan><tspan x="829" dy="16">&lt;</tspan><tspan x="829" dy="16">カ</tspan><tspan x="829" dy="16">ク</tspan><tspan x="829" dy="16">&lt;</tspan><tspan x="829" dy="16">ヌ</tspan><tspan x="829" dy="16">ナ</tspan><tspan x="829" dy="16">$</tspan><tspan x="829" dy="16">\</tspan><tspan x="829" dy="16">1</tspan><tspan x="829" dy="16">ツ</tspan><tspan x="829" dy="16">エ</tspan><tspan x="829" dy="16">ヌ</tspan><tspan x="829" dy="16">ヌ</tspan><tspan x="829" dy="16">]</tspan></text><text class="rain" style="animation-duration:8.6s;animation-delay:-3.3s" x="872" y="0"><tspan x="872" dy="16">オ</tspan><tspan x="872" dy="16">イ</tspan><tspan x="872" dy="16">{</tspan><tspan x="872" dy="16">セ</tspan><tspan x="872" dy="16">ク</tspan><tspan x="872" dy="16">ス</tspan><tspan x="872" dy="16">ウ</tspan><tspan x="872" dy="16">1</tspan><tspan x="872" dy="16">イ</tspan><tspan x="872" dy="16">]</tspan><tspan x="872" dy="16">ア</tspan><tspan x="872" dy="16">}</tspan><tspan x="872" dy="16">&gt;</tspan><tspan x="872" dy="16">]</tspan><tspan x="872" dy="16">1</tspan><tspan x="872" dy="16">{</tspan><tspan x="872" dy="16">テ</tspan><tspan x="872" dy="16">ク</tspan><tspan x="872" dy="16">]</tspan><tspan x="872" dy="16">ト</tspan><tspan x="872" dy="16">セ</tspan><tspan x="872" dy="16">ツ</tspan></text><text class="rain" style="animation-duration:6.6s;animation-delay:-6.5s" x="915" y="0"><tspan x="915" dy="16">ト</tspan><tspan x="915" dy="16">ツ</tspan><tspan x="915" dy="16">]</tspan><tspan x="915" dy="16">ネ</tspan><tspan x="915" dy="16">ト</tspan><tspan x="915" dy="16">コ</tspan><tspan x="915" dy="16">ア</tspan><tspan x="915" dy="16">/</tspan><tspan x="915" dy="16">]</tspan><tspan x="915" dy="16">ネ</tspan><tspan x="915" dy="16">オ</tspan><tspan x="915" dy="16">$</tspan><tspan x="915" dy="16">$</tspan><tspan x="915" dy="16">ネ</tspan><tspan x="915" dy="16">ス</tspan><tspan x="915" dy="16">#</tspan><tspan x="915" dy="16">ウ</tspan><tspan x="915" dy="16">ス</tspan><tspan x="915" dy="16">0</tspan><tspan x="915" dy="16">&gt;</tspan><tspan x="915" dy="16">コ</tspan><tspan x="915" dy="16">ネ</tspan></text><text class="rain" style="animation-duration:8.0s;animation-delay:-2.9s" x="958" y="0"><tspan x="958" dy="16">ト</tspan><tspan x="958" dy="16">ソ</tspan><tspan x="958" dy="16">#</tspan><tspan x="958" dy="16">コ</tspan><tspan x="958" dy="16">ウ</tspan><tspan x="958" dy="16">0</tspan><tspan x="958" dy="16">/</tspan><tspan x="958" dy="16">ソ</tspan><tspan x="958" dy="16">テ</tspan><tspan x="958" dy="16">#</tspan><tspan x="958" dy="16">1</tspan><tspan x="958" dy="16">チ</tspan><tspan x="958" dy="16">{</tspan><tspan x="958" dy="16">ス</tspan><tspan x="958" dy="16">&gt;</tspan><tspan x="958" dy="16">&amp;</tspan><tspan x="958" dy="16">ネ</tspan><tspan x="958" dy="16">カ</tspan><tspan x="958" dy="16">ナ</tspan><tspan x="958" dy="16">イ</tspan><tspan x="958" dy="16">0</tspan><tspan x="958" dy="16">ス</tspan></text><text class="rain" style="animation-duration:10.3s;animation-delay:-5.9s" x="1001" y="0"><tspan x="1001" dy="16">%</tspan><tspan x="1001" dy="16">チ</tspan><tspan x="1001" dy="16">#</tspan><tspan x="1001" dy="16">コ</tspan><tspan x="1001" dy="16">&gt;</tspan><tspan x="1001" dy="16">1</tspan><tspan x="1001" dy="16">テ</tspan><tspan x="1001" dy="16">%</tspan><tspan x="1001" dy="16">ネ</tspan><tspan x="1001" dy="16">[</tspan><tspan x="1001" dy="16">\</tspan><tspan x="1001" dy="16">}</tspan><tspan x="1001" dy="16">ア</tspan><tspan x="1001" dy="16">セ</tspan><tspan x="1001" dy="16">&amp;</tspan><tspan x="1001" dy="16">/</tspan><tspan x="1001" dy="16">コ</tspan><tspan x="1001" dy="16">&amp;</tspan><tspan x="1001" dy="16">タ</tspan><tspan x="1001" dy="16">ツ</tspan><tspan x="1001" dy="16">{</tspan><tspan x="1001" dy="16">ケ</tspan></text><text class="rain" style="animation-duration:6.0s;animation-delay:-4.9s" x="1044" y="0"><tspan x="1044" dy="16">ツ</tspan><tspan x="1044" dy="16">ネ</tspan><tspan x="1044" dy="16">/</tspan><tspan x="1044" dy="16">%</tspan><tspan x="1044" dy="16">}</tspan><tspan x="1044" dy="16">\</tspan><tspan x="1044" dy="16">&gt;</tspan><tspan x="1044" dy="16">ノ</tspan><tspan x="1044" dy="16">$</tspan><tspan x="1044" dy="16">ア</tspan><tspan x="1044" dy="16">ク</tspan><tspan x="1044" dy="16">ト</tspan><tspan x="1044" dy="16">オ</tspan><tspan x="1044" dy="16">]</tspan><tspan x="1044" dy="16">ヌ</tspan><tspan x="1044" dy="16">ト</tspan><tspan x="1044" dy="16">オ</tspan><tspan x="1044" dy="16">\</tspan><tspan x="1044" dy="16">セ</tspan><tspan x="1044" dy="16">ス</tspan><tspan x="1044" dy="16">ニ</tspan><tspan x="1044" dy="16">ソ</tspan></text><text class="rain" style="animation-duration:9.4s;animation-delay:-3.9s" x="1087" y="0"><tspan x="1087" dy="16">ス</tspan><tspan x="1087" dy="16">ト</tspan><tspan x="1087" dy="16">オ</tspan><tspan x="1087" dy="16">*</tspan><tspan x="1087" dy="16">ツ</tspan><tspan x="1087" dy="16">ウ</tspan><tspan x="1087" dy="16">ア</tspan><tspan x="1087" dy="16">\</tspan><tspan x="1087" dy="16">カ</tspan><tspan x="1087" dy="16">シ</tspan><tspan x="1087" dy="16">ス</tspan><tspan x="1087" dy="16">サ</tspan><tspan x="1087" dy="16">&lt;</tspan><tspan x="1087" dy="16">$</tspan><tspan x="1087" dy="16">}</tspan><tspan x="1087" dy="16">ノ</tspan><tspan x="1087" dy="16">オ</tspan><tspan x="1087" dy="16">ア</tspan><tspan x="1087" dy="16">1</tspan><tspan x="1087" dy="16">キ</tspan><tspan x="1087" dy="16">ス</tspan><tspan x="1087" dy="16">{</tspan></text><text class="rain" style="animation-duration:10.7s;animation-delay:-0.4s" x="1130" y="0"><tspan x="1130" dy="16">*</tspan><tspan x="1130" dy="16">&gt;</tspan><tspan x="1130" dy="16">]</tspan><tspan x="1130" dy="16">イ</tspan><tspan x="1130" dy="16">サ</tspan><tspan x="1130" dy="16">ウ</tspan><tspan x="1130" dy="16">&gt;</tspan><tspan x="1130" dy="16">テ</tspan><tspan x="1130" dy="16">&lt;</tspan><tspan x="1130" dy="16">キ</tspan><tspan x="1130" dy="16">ト</tspan><tspan x="1130" dy="16">/</tspan><tspan x="1130" dy="16">/</tspan><tspan x="1130" dy="16">タ</tspan><tspan x="1130" dy="16">テ</tspan><tspan x="1130" dy="16">/</tspan><tspan x="1130" dy="16">%</tspan><tspan x="1130" dy="16">ソ</tspan><tspan x="1130" dy="16">オ</tspan><tspan x="1130" dy="16">#</tspan><tspan x="1130" dy="16">チ</tspan><tspan x="1130" dy="16">カ</tspan></text><text class="rain" style="animation-duration:9.2s;animation-delay:-2.1s" x="1173" y="0"><tspan x="1173" dy="16">サ</tspan><tspan x="1173" dy="16">タ</tspan><tspan x="1173" dy="16">タ</tspan><tspan x="1173" dy="16">エ</tspan><tspan x="1173" dy="16">キ</tspan><tspan x="1173" dy="16">ス</tspan><tspan x="1173" dy="16">ク</tspan><tspan x="1173" dy="16">ケ</tspan><tspan x="1173" dy="16">オ</tspan><tspan x="1173" dy="16">&gt;</tspan><tspan x="1173" dy="16">キ</tspan><tspan x="1173" dy="16">ニ</tspan><tspan x="1173" dy="16">タ</tspan><tspan x="1173" dy="16">ウ</tspan><tspan x="1173" dy="16">ケ</tspan><tspan x="1173" dy="16">タ</tspan><tspan x="1173" dy="16">&gt;</tspan><tspan x="1173" dy="16">ノ</tspan><tspan x="1173" dy="16">ソ</tspan><tspan x="1173" dy="16">$</tspan><tspan x="1173" dy="16">1</tspan><tspan x="1173" dy="16">$</tspan></text>
  <rect width="1200" height="320" fill="url(#fade)" opacity="0.85"/>
  <text class="title ghost" x="600" y="150" text-anchor="middle" fill="#ff3b6b">AI SECURITY</text>
  <text class="title ghost" style="animation-delay:.15s" x="600" y="150" text-anchor="middle" fill="#00d4ff">AI SECURITY</text>
  <text class="title" x="600" y="150" text-anchor="middle" fill="#f4fff8" filter="url(#glow)">AI SECURITY</text>
  <text x="600" y="180" text-anchor="middle" font-size="14" letter-spacing="8" fill="#2ee38a">THE COMPENDIUM</text>
  <text class="word" style="animation-delay:0.0s;animation-duration:26.4s" x="600" y="212" text-anchor="middle">prompt injection<tspan class="cursor" fill="#2ee38a">▍</tspan></text><text class="word" style="animation-delay:2.4s;animation-duration:26.4s" x="600" y="212" text-anchor="middle">agent security<tspan class="cursor" fill="#2ee38a">▍</tspan></text><text class="word" style="animation-delay:4.8s;animation-duration:26.4s" x="600" y="212" text-anchor="middle">model context protocol<tspan class="cursor" fill="#2ee38a">▍</tspan></text><text class="word" style="animation-delay:7.2s;animation-duration:26.4s" x="600" y="212" text-anchor="middle">red teaming<tspan class="cursor" fill="#2ee38a">▍</tspan></text><text class="word" style="animation-delay:9.6s;animation-duration:26.4s" x="600" y="212" text-anchor="middle">supply chain<tspan class="cursor" fill="#2ee38a">▍</tspan></text><text class="word" style="animation-delay:12.0s;animation-duration:26.4s" x="600" y="212" text-anchor="middle">governance<tspan class="cursor" fill="#2ee38a">▍</tspan></text><text class="word" style="animation-delay:14.4s;animation-duration:26.4s" x="600" y="212" text-anchor="middle">incidents<tspan class="cursor" fill="#2ee38a">▍</tspan></text><text class="word" style="animation-delay:16.8s;animation-duration:26.4s" x="600" y="212" text-anchor="middle">sandboxing<tspan class="cursor" fill="#2ee38a">▍</tspan></text><text class="word" style="animation-delay:19.2s;animation-duration:26.4s" x="600" y="212" text-anchor="middle">secrets<tspan class="cursor" fill="#2ee38a">▍</tspan></text><text class="word" style="animation-delay:21.6s;animation-duration:26.4s" x="600" y="212" text-anchor="middle">papers<tspan class="cursor" fill="#2ee38a">▍</tspan></text><text class="word" style="animation-delay:24.0s;animation-duration:26.4s" x="600" y="212" text-anchor="middle">5,660 links and counting<tspan class="cursor" fill="#2ee38a">▍</tspan></text>
  <text class="stat" x="600" y="272" text-anchor="middle"><tspan class="num">5,660</tspan> LINKS   ·   <tspan class="num">29</tspan> CATEGORIES   ·   <tspan class="num">108</tspan> SECTIONS   ·   UPDATED <tspan class="num">2026-09-05</tspan></text>
  <text x="24" y="30" font-size="14" fill="#2ee38a" opacity="0.7">┌──</text><text x="1176" y="30" text-anchor="end" font-size="14" fill="#2ee38a" opacity="0.7">──┐</text>
  <text x="24" y="306" font-size="14" fill="#2ee38a" opacity="0.7">└──</text><text x="1176" y="306" text-anchor="end" font-size="14" fill="#2ee38a" opacity="0.7">──┘</text>
  <rect width="1200" height="320" fill="url(#lines)"/>
  <rect class="scan" width="1200" height="40" fill="#2ee38a" opacity="0.05"/>
</g>
</svg>